          <svg stroke-width="1.25" stroke="none" xmlns="http://www.w3.org/2000/svg">
            <path fill="#1e306e" d="M19.1817,17.6163 C18.6300031,17.6163 18.1817,17.1686438 18.1817,16.6163 C18.1817,16.0639563 18.6300031,15.6163 19.1817,15.6163 C19.7333969,15.6163 20.1817,16.0639563 20.1817,16.6163 C20.1817,17.1686438 19.7333969,17.6163 19.1817,17.6163 M8.87078989,17.6163 C8.3178673,17.6163 7.87,17.1686438 7.87,16.6163 C7.87,16.0639563 8.3178673,15.6163 8.87078989,15.6163 C9.42292259,15.6163 9.87,16.0639563 9.87,16.6163 C9.87,17.1686438 9.42292259,17.6163 8.87078989,17.6163"></path>
            <path fill="#d7ecf7" d="M22.9321,2.7437 C21.9631,1.8437 20.9821,1.6747 19.9871,2.2377 C18.4951,3.0817 17.8751,6.2637 13.2861,7.6537 C10.2281,8.5807 8.2191,9.0307 7.2611,9.0037 L8.2861,13.0837 L17.7221,13.0837 C19.7301,12.8017 20.7151,11.8897 20.7151,11.8897 C20.7151,11.8897 21.3661,8.3477 22.9321,3.3097 L22.9321,2.7437 Z"></path>
            <path fill="none" stroke-width="1.25" stroke="#1e306e" d="M0.4135,0.71829974 L3.6135,0.71829974 C3.6135,0.71829974 4.5735,0.7143 4.9145,1.6993 C5.1485,2.3753 7.2615,11.6533 7.2615,11.6533 C7.2615,11.6533 7.4305,12.3673 8.2855,12.3673 L19.5485,12.3673 C19.5485,12.3673 20.4755,12.3673 20.7425,11.6533 C21.0675,10.7803 22.6515,3.1133 22.6515,3.1133"></path>
          </svg>